<?xml version="1.0" encoding="iso-8859-1"?>
<!-- Generator: Adobe Illustrator 21.0.0, SVG Export Plug-In . SVG Version: 6.00 Build 0)  -->
<svg version="1.1" id="LOCK_FACE_2" xmlns="http://www.w3.org/2000/svg" xmlns:xlink="http://www.w3.org/1999/xlink" x="0px"
	 y="0px" viewBox="0 0 306.331 613.987" style="enable-background:new 0 0 306.331 613.987;" xml:space="preserve">
<linearGradient id="SVGID_1_" gradientUnits="userSpaceOnUse" x1="153.1653" y1="613.9875" x2="153.1653" y2="-9.094947e-13">
	<stop  offset="0" style="stop-color:#323232"/>
	<stop  offset="0.67" style="stop-color:#929292"/>
	<stop  offset="0.8816" style="stop-color:#414141"/>
</linearGradient>
<path style="fill:url(#SVGID_1_);" d="M306.331,613.987H0V0h306.331V613.987z M268.58,469.87
	c0-63.742-51.673-115.415-115.415-115.415S37.75,406.128,37.75,469.87s51.673,115.415,115.415,115.415S268.58,533.612,268.58,469.87
	z"/>
<path style="fill:#080708;" d="M151.418,587.821"/>
<linearGradient id="SVGID_2_" gradientUnits="userSpaceOnUse" x1="23.1094" y1="31.6074" x2="29.3304" y2="20.8324">
	<stop  offset="0" style="stop-color:#818181"/>
	<stop  offset="0.1811" style="stop-color:#838383"/>
	<stop  offset="0.2785" style="stop-color:#8B8B8B"/>
	<stop  offset="0.356" style="stop-color:#999999"/>
	<stop  offset="0.4231" style="stop-color:#ACACAC"/>
	<stop  offset="0.4834" style="stop-color:#C5C5C5"/>
	<stop  offset="0.538" style="stop-color:#E4E4E4"/>
	<stop  offset="0.5641" style="stop-color:#F5F5F5"/>
	<stop  offset="0.5727" style="stop-color:#EDEDED"/>
	<stop  offset="0.6091" style="stop-color:#D1D1D1"/>
	<stop  offset="0.65" style="stop-color:#BABABA"/>
	<stop  offset="0.6968" style="stop-color:#A8A8A8"/>
	<stop  offset="0.753" style="stop-color:#9B9B9B"/>
	<stop  offset="0.8281" style="stop-color:#949494"/>
	<stop  offset="1" style="stop-color:#929292"/>
</linearGradient>
<circle style="fill:url(#SVGID_2_);" cx="26.22" cy="26.22" r="6.22"/>
<linearGradient id="SVGID_3_" gradientUnits="userSpaceOnUse" x1="23.1094" y1="593.1551" x2="29.3304" y2="582.3801">
	<stop  offset="0" style="stop-color:#818181"/>
	<stop  offset="0.1811" style="stop-color:#838383"/>
	<stop  offset="0.2785" style="stop-color:#8B8B8B"/>
	<stop  offset="0.356" style="stop-color:#999999"/>
	<stop  offset="0.4231" style="stop-color:#ACACAC"/>
	<stop  offset="0.4834" style="stop-color:#C5C5C5"/>
	<stop  offset="0.538" style="stop-color:#E4E4E4"/>
	<stop  offset="0.5641" style="stop-color:#F5F5F5"/>
	<stop  offset="0.5727" style="stop-color:#EDEDED"/>
	<stop  offset="0.6091" style="stop-color:#D1D1D1"/>
	<stop  offset="0.65" style="stop-color:#BABABA"/>
	<stop  offset="0.6968" style="stop-color:#A8A8A8"/>
	<stop  offset="0.753" style="stop-color:#9B9B9B"/>
	<stop  offset="0.8281" style="stop-color:#949494"/>
	<stop  offset="1" style="stop-color:#929292"/>
</linearGradient>
<circle style="fill:url(#SVGID_3_);" cx="26.22" cy="587.768" r="6.22"/>
<linearGradient id="SVGID_4_" gradientUnits="userSpaceOnUse" x1="277.0003" y1="593.1551" x2="283.2213" y2="582.3801">
	<stop  offset="0" style="stop-color:#818181"/>
	<stop  offset="0.1811" style="stop-color:#838383"/>
	<stop  offset="0.2785" style="stop-color:#8B8B8B"/>
	<stop  offset="0.356" style="stop-color:#999999"/>
	<stop  offset="0.4231" style="stop-color:#ACACAC"/>
	<stop  offset="0.4834" style="stop-color:#C5C5C5"/>
	<stop  offset="0.538" style="stop-color:#E4E4E4"/>
	<stop  offset="0.5641" style="stop-color:#F5F5F5"/>
	<stop  offset="0.5727" style="stop-color:#EDEDED"/>
	<stop  offset="0.6091" style="stop-color:#D1D1D1"/>
	<stop  offset="0.65" style="stop-color:#BABABA"/>
	<stop  offset="0.6968" style="stop-color:#A8A8A8"/>
	<stop  offset="0.753" style="stop-color:#9B9B9B"/>
	<stop  offset="0.8281" style="stop-color:#949494"/>
	<stop  offset="1" style="stop-color:#929292"/>
</linearGradient>
<circle style="fill:url(#SVGID_4_);" cx="280.111" cy="587.768" r="6.22"/>
<linearGradient id="SVGID_5_" gradientUnits="userSpaceOnUse" x1="277.0003" y1="31.6074" x2="283.2213" y2="20.8324">
	<stop  offset="0" style="stop-color:#818181"/>
	<stop  offset="0.1811" style="stop-color:#838383"/>
	<stop  offset="0.2785" style="stop-color:#8B8B8B"/>
	<stop  offset="0.356" style="stop-color:#999999"/>
	<stop  offset="0.4231" style="stop-color:#ACACAC"/>
	<stop  offset="0.4834" style="stop-color:#C5C5C5"/>
	<stop  offset="0.538" style="stop-color:#E4E4E4"/>
	<stop  offset="0.5641" style="stop-color:#F5F5F5"/>
	<stop  offset="0.5727" style="stop-color:#EDEDED"/>
	<stop  offset="0.6091" style="stop-color:#D1D1D1"/>
	<stop  offset="0.65" style="stop-color:#BABABA"/>
	<stop  offset="0.6968" style="stop-color:#A8A8A8"/>
	<stop  offset="0.753" style="stop-color:#9B9B9B"/>
	<stop  offset="0.8281" style="stop-color:#949494"/>
	<stop  offset="1" style="stop-color:#929292"/>
</linearGradient>
<circle style="fill:url(#SVGID_5_);" cx="280.111" cy="26.22" r="6.22"/>
<linearGradient id="SVGID_6_" gradientUnits="userSpaceOnUse" x1="167.522" y1="294.2286" x2="138.8087" y2="244.4958">
	<stop  offset="0" style="stop-color:#323232"/>
	<stop  offset="0.67" style="stop-color:#C5C5C5"/>
	<stop  offset="0.8816" style="stop-color:#414141"/>
</linearGradient>
<circle style="fill:url(#SVGID_6_);" cx="153.165" cy="269.362" r="28.708"/>
<circle style="fill:#606060;" cx="153.165" cy="269.362" r="25.822"/>
<linearGradient id="SVGID_7_" gradientUnits="userSpaceOnUse" x1="215.2343" y1="577.3769" x2="91.0964" y2="362.3638">
	<stop  offset="0" style="stop-color:#323232"/>
	<stop  offset="0.67" style="stop-color:#C5C5C5"/>
	<stop  offset="0.8816" style="stop-color:#414141"/>
</linearGradient>
<path style="fill:url(#SVGID_7_);" d="M153.165,593.987c-68.548,0-124.117-55.569-124.117-124.117s55.569-124.117,124.117-124.117
	s124.117,55.569,124.117,124.117S221.713,593.987,153.165,593.987z M268.58,469.87c0-63.742-51.673-115.415-115.415-115.415
	S37.75,406.128,37.75,469.87s51.673,115.415,115.415,115.415S268.58,533.612,268.58,469.87z"/>
<linearGradient id="SVGID_8_" gradientUnits="userSpaceOnUse" x1="37.7503" y1="469.8704" x2="268.5804" y2="469.8704">
	<stop  offset="0" style="stop-color:#323232"/>
	<stop  offset="0.0905" style="stop-color:#575757"/>
	<stop  offset="0.1879" style="stop-color:#777777"/>
	<stop  offset="0.2695" style="stop-color:#8B8B8B"/>
	<stop  offset="0.3248" style="stop-color:#929292"/>
	<stop  offset="0.4561" style="stop-color:#838383"/>
	<stop  offset="0.7064" style="stop-color:#5D5D5D"/>
	<stop  offset="0.8664" style="stop-color:#414141"/>
</linearGradient>
<path style="fill:url(#SVGID_8_);" d="M71.263,551.189c-44.911-45.233-44.65-118.31,0.584-163.22s118.31-44.65,163.22,0.584
	s44.65,118.31-0.584,163.22S116.174,596.422,71.263,551.189z M125.412,441.951c15.429-15.319,40.356-15.23,55.676,0.199
	c0.001,0.001,0.002,0.003,0.003,0.004l24.448-24.278c-28.735-28.941-75.49-29.108-104.43-0.373
	c-0.143,0.142-0.273,0.291-0.415,0.433l24.458,24.288C125.24,442.134,125.322,442.04,125.412,441.951z"/>
<linearGradient id="SVGID_9_" gradientUnits="userSpaceOnUse" x1="140.302" y1="469.8704" x2="165.8699" y2="469.8704">
	<stop  offset="0" style="stop-color:#323232"/>
	<stop  offset="0.0652" style="stop-color:#494949"/>
	<stop  offset="0.1731" style="stop-color:#6A6A6A"/>
	<stop  offset="0.2635" style="stop-color:#7D7D7D"/>
	<stop  offset="0.3248" style="stop-color:#858585"/>
	<stop  offset="0.4773" style="stop-color:#767676"/>
	<stop  offset="0.7682" style="stop-color:#4F4F4F"/>
	<stop  offset="0.8664" style="stop-color:#414141"/>
</linearGradient>
<path style="fill:#080808;stroke:url(#SVGID_9_);stroke-width:1.4173;stroke-miterlimit:10;" d="M162.626,467.088h-2.823
	c-0.348-0.831-0.855-1.612-1.529-2.291c-2.802-2.822-7.36-2.838-10.182-0.036c-0.692,0.687-1.213,1.48-1.567,2.327h-2.979
	c-1.394,0-2.535,1.141-2.535,2.535v0.683c0,1.394,1.141,2.535,2.535,2.535h3.068c0.344,0.76,0.82,1.475,1.442,2.102
	c2.802,2.822,7.36,2.838,10.182,0.036c0.64-0.635,1.128-1.363,1.479-2.139h2.909c1.394,0,2.535-1.141,2.535-2.535v-0.683
	C165.161,468.229,164.02,467.088,162.626,467.088z"/>
<g>
	<linearGradient id="SVGID_10_" gradientUnits="userSpaceOnUse" x1="98.6934" y1="419.4403" x2="207.5465" y2="419.4403">
		<stop  offset="0" style="stop-color:#323232"/>
		<stop  offset="0.0158" style="stop-color:#3E3E3E"/>
		<stop  offset="0.0954" style="stop-color:#787878"/>
		<stop  offset="0.1688" style="stop-color:#A5A5A5"/>
		<stop  offset="0.2339" style="stop-color:#C6C6C6"/>
		<stop  offset="0.2881" style="stop-color:#DADADA"/>
		<stop  offset="0.3248" style="stop-color:#E1E1E1"/>
		<stop  offset="0.3995" style="stop-color:#D2D2D2"/>
		<stop  offset="0.5426" style="stop-color:#ACACAC"/>
		<stop  offset="0.7376" style="stop-color:#6E6E6E"/>
		<stop  offset="0.8664" style="stop-color:#414141"/>
	</linearGradient>
	<path style="fill:none;stroke:url(#SVGID_10_);stroke-width:2.8346;stroke-miterlimit:10;" d="M125.415,441.955
		c15.429-15.319,40.356-15.23,55.676,0.199c0.001,0.001,0.002,0.003,0.003,0.004l24.448-24.278
		c-28.735-28.941-75.49-29.108-104.43-0.373c-0.143,0.142-0.273,0.291-0.415,0.433l24.458,24.288
		C125.243,442.137,125.326,442.044,125.415,441.955z"/>
</g>
<linearGradient id="SVGID_11_" gradientUnits="userSpaceOnUse" x1="167.522" y1="294.2286" x2="138.8087" y2="244.4958">
	<stop  offset="0" style="stop-color:#323232"/>
	<stop  offset="0.67" style="stop-color:#C5C5C5"/>
	<stop  offset="0.8816" style="stop-color:#414141"/>
</linearGradient>
<circle style="fill:url(#SVGID_11_);" cx="153.165" cy="269.362" r="28.708"/>
<circle style="fill:#606060;" cx="153.165" cy="269.362" r="25.822"/>
</svg>
